<?xml version="1.0" standalone="no"?>
<!DOCTYPE svg PUBLIC "-//W3C//DTD SVG 20010904//EN"
 "http://www.w3.org/TR/2001/REC-SVG-20010904/DTD/svg10.dtd">
<svg version="1.0" xmlns="http://www.w3.org/2000/svg"
 width="270.000000pt" height="270.000000pt" viewBox="0 0 270.000000 270.000000"
 preserveAspectRatio="xMidYMid meet">
<metadata>
Created by potrace 1.14, written by Peter Selinger 2001-2017
</metadata>
<g transform="translate(0.000000,270.000000) scale(0.100000,-0.100000)"
fill="#000000" stroke="none">
<path d="M840 2611 c-112 -35 -174 -119 -175 -236 0 -73 12 -113 54 -180 21
-34 25 -53 26 -120 0 -56 6 -90 18 -113 l18 -33 -118 -122 c-205 -211 -288
-372 -314 -606 -34 -304 89 -626 322 -846 118 -111 240 -182 399 -233 244 -78
505 -61 738 48 288 135 489 376 574 688 18 63 21 107 22 242 1 188 -14 259
-84 402 -62 127 -123 203 -339 423 -2 2 5 24 14 49 13 34 16 63 13 111 -3 36
-2 68 3 71 5 3 24 33 41 67 36 72 48 171 28 232 -16 48 -72 110 -124 138 -40
22 -48 22 -566 24 -289 1 -536 -2 -550 -6z m143 -196 c54 -46 90 -46 151 0 75
57 102 56 174 -6 47 -42 87 -39 153 11 30 22 63 40 74 40 12 0 46 -18 75 -40
70 -53 100 -52 171 1 44 33 60 39 84 35 40 -8 65 -40 65 -85 -1 -51 -16 -80
-85 -160 l-60 -71 -412 0 -412 0 -12 23 c-7 12 -32 43 -56 70 -79 85 -92 149
-43 199 39 38 74 34 133 -17z m822 -501 c23 -54 51 -91 149 -193 233 -243 306
-406 293 -655 -12 -233 -98 -421 -267 -586 -165 -161 -368 -242 -605 -242
-485 1 -865 382 -866 867 -1 236 72 391 286 611 80 81 125 137 145 178 17 32
30 65 30 73 0 11 73 13 403 13 l403 0 29 -66z"/>
<path d="M1300 1655 c0 -82 -1 -85 -27 -99 -75 -39 -126 -124 -127 -211 -1
-90 28 -139 170 -285 66 -69 126 -135 133 -147 17 -33 13 -67 -10 -97 -43 -55
-151 -20 -140 47 0 4 -35 7 -79 7 l-81 0 7 -37 c14 -77 66 -146 131 -176 21
-9 23 -16 23 -99 l0 -88 75 0 75 0 0 90 c0 67 3 90 13 90 7 0 32 14 54 30 56
42 93 116 93 190 0 89 -34 146 -172 282 -153 151 -176 206 -111 258 43 34 103
19 125 -32 12 -27 15 -28 85 -28 81 0 82 1 62 71 -16 50 -62 105 -110 129
l-39 20 0 85 0 85 -75 0 -75 0 0 -85z"/>
</g>
</svg>
